<svg id="wave" style="transform:rotate(180deg); transition: 0.3s" viewBox="0 0 1440 490" version="1.1" xmlns="http://www.w3.org/2000/svg"><defs><linearGradient id="sw-gradient-0" x1="0" x2="0" y1="1" y2="0"><stop stop-color="rgba(4, 57, 94, 1)" offset="0%"></stop><stop stop-color="rgba(1.349, 69.18, 116.534, 1)" offset="100%"></stop></linearGradient></defs><path style="transform:translate(0, 0px); opacity:1" fill="url(#sw-gradient-0)" d="M0,0L34.3,16.3C68.6,33,137,65,206,81.7C274.3,98,343,98,411,138.8C480,180,549,261,617,285.8C685.7,310,754,278,823,285.8C891.4,294,960,343,1029,334.8C1097.1,327,1166,261,1234,220.5C1302.9,180,1371,163,1440,147C1508.6,131,1577,114,1646,138.8C1714.3,163,1783,229,1851,253.2C1920,278,1989,261,2057,285.8C2125.7,310,2194,376,2263,334.8C2331.4,294,2400,147,2469,106.2C2537.1,65,2606,131,2674,196C2742.9,261,2811,327,2880,326.7C2948.6,327,3017,261,3086,261.3C3154.3,261,3223,327,3291,294C3360,261,3429,131,3497,73.5C3565.7,16,3634,33,3703,81.7C3771.4,131,3840,212,3909,228.7C3977.1,245,4046,196,4114,179.7C4182.9,163,4251,180,4320,228.7C4388.6,278,4457,359,4526,392C4594.3,425,4663,408,4731,408.3C4800,408,4869,425,4903,432.8L4937.1,441L4937.1,490L4902.9,490C4868.6,490,4800,490,4731,490C4662.9,490,4594,490,4526,490C4457.1,490,4389,490,4320,490C4251.4,490,4183,490,4114,490C4045.7,490,3977,490,3909,490C3840,490,3771,490,3703,490C3634.3,490,3566,490,3497,490C3428.6,490,3360,490,3291,490C3222.9,490,3154,490,3086,490C3017.1,490,2949,490,2880,490C2811.4,490,2743,490,2674,490C2605.7,490,2537,490,2469,490C2400,490,2331,490,2263,490C2194.3,490,2126,490,2057,490C1988.6,490,1920,490,1851,490C1782.9,490,1714,490,1646,490C1577.1,490,1509,490,1440,490C1371.4,490,1303,490,1234,490C1165.7,490,1097,490,1029,490C960,490,891,490,823,490C754.3,490,686,490,617,490C548.6,490,480,490,411,490C342.9,490,274,490,206,490C137.1,490,69,490,34,490L0,490Z"></path></svg>