<svg id="visual" viewBox="0 0 960 540" width="960" height="540" xmlns="http://www.w3.org/2000/svg" xmlns:xlink="http://www.w3.org/1999/xlink" version="1.1"><rect x="0" y="0" width="960" height="540" fill="#FFFFFF"></rect><path d="M0 298L32 303.5C64 309 128 320 192 307.7C256 295.3 320 259.7 384 238.8C448 218 512 212 576 213.8C640 215.7 704 225.3 768 234.3C832 243.3 896 251.7 928 255.8L960 260L960 0L928 0C896 0 832 0 768 0C704 0 640 0 576 0C512 0 448 0 384 0C320 0 256 0 192 0C128 0 64 0 32 0L0 0Z" fill="#04395E" stroke-linecap="round" stroke-linejoin="miter"></path></svg>